<svg xmlns="http://www.w3.org/2000/svg" viewBox="0 0 1816.58 412.57"><defs><style>.cls-1{fill:#ff8e1a;}</style></defs><g id="Layer_2" data-name="Layer 2"><g id="Layer_1-2" data-name="Layer 1"><path class="cls-1" d="M321.2,412.35H124.38A124.51,124.51,0,0,1,0,288V18.19a17.14,17.14,0,0,1,34.28,0V288a90.2,90.2,0,0,0,90.1,90.1H321.2A90.2,90.2,0,0,0,411.3,288V122.7a85.69,85.69,0,0,0-171.37,0V314.79a17.14,17.14,0,0,1-34.28,0V122.7a120,120,0,0,1,239.93,0V288A124.52,124.52,0,0,1,321.2,412.35Z"/><path class="cls-1" d="M428.44,225.21h-134a17.14,17.14,0,1,1,0-34.28H428.44a17.14,17.14,0,0,1,0,34.28Z"/><path class="cls-1" d="M1799.44,225.42h-134a17.14,17.14,0,0,1,0-34.28h134a17.14,17.14,0,0,1,0,34.28Z"/><path class="cls-1" d="M599.81,412.57a120.1,120.1,0,0,1-120-120V120a120,120,0,0,1,239.93,0,17.14,17.14,0,0,1-34.28,0,85.69,85.69,0,0,0-171.37,0V292.61a85.69,85.69,0,1,0,171.37,0V224.72H617a17.14,17.14,0,1,1,0-34.27h85.69a17.14,17.14,0,0,1,17.14,17.14v85A120.11,120.11,0,0,1,599.81,412.57Z"/><path class="cls-1" d="M874,412.57a120.1,120.1,0,0,1-120-120V120A120,120,0,0,1,994,120a17.14,17.14,0,0,1-34.28,0,85.69,85.69,0,0,0-171.37,0V292.61a85.69,85.69,0,1,0,171.37,0,17.14,17.14,0,0,1,34.28,0A120.11,120.11,0,0,1,874,412.57Z"/><path class="cls-1" d="M1251,412.57a17.14,17.14,0,0,1-17.14-17.14V120a85.69,85.69,0,0,0-171.37,0V395.43a17.14,17.14,0,1,1-34.28,0V120a120,120,0,0,1,239.93,0V395.43A17.14,17.14,0,0,1,1251,412.57Z"/><path class="cls-1" d="M1799.44,412.57a17.13,17.13,0,0,1-17.13-17.14V120a85.69,85.69,0,0,0-171.38,0V395.43a17.14,17.14,0,0,1-34.28,0V120a120,120,0,0,1,239.93,0V395.43A17.14,17.14,0,0,1,1799.44,412.57Z"/><path class="cls-1" d="M856.67,224.73H771.19a17.14,17.14,0,1,1,0-34.27h85.48a17.14,17.14,0,1,1,0,34.27Z"/><path class="cls-1" d="M1045.39,160.47a17.14,17.14,0,0,1-17.14-17.13V17.14a17.14,17.14,0,1,1,34.28,0v126.2A17.14,17.14,0,0,1,1045.39,160.47Z"/><path class="cls-1" d="M1422.42,412.57h-78.15a17.14,17.14,0,0,1-17.14-17.14V17.14A17.14,17.14,0,0,1,1344.27,0h78.15a120.1,120.1,0,0,1,120,120V292.61A120.1,120.1,0,0,1,1422.42,412.57Zm-61-34.27h61a85.78,85.78,0,0,0,85.68-85.69V120a85.78,85.78,0,0,0-85.68-85.68h-61Z"/><rect class="cls-1" x="1302.46" width="89.92" height="34.28" rx="17.14"/><rect class="cls-1" x="1302.46" y="378.3" width="89.92" height="34.28" rx="17.14"/><path class="cls-1" d="M1369.55,160.37h-50a17.14,17.14,0,0,1,0-34.27h50a17.14,17.14,0,1,1,0,34.27Z"/><path class="cls-1" d="M1369.55,286.47h-50a17.14,17.14,0,0,1,0-34.27h50a17.14,17.14,0,1,1,0,34.27Z"/><path class="cls-1" d="M98.06,27.64,72.34,53.38a2.22,2.22,0,0,1-3.79-1.57V20.06a18.9,18.9,0,0,1,18.38-19h.71C101.23,1.33,107.67,18,98.06,27.64Z"/></g></g></svg>